# xmcd CD database file
# Copyright (C) 1993-1996 Ti Kan
#
# Track frame offsets:
#  150
#  13360
#  26755
#  43952
#  61475
#  76597
#  90889
#  106609
#  124189
#  139774
#  151599
#  163859
#  179654
#  193134
#  205484
#  219494
#  231759
#  244154
#  254599
#  267594
#  280039
#  294174
#  309879
#
# Disc length: 4327 seconds
#
# Revision: 1
# Processed by: cddbd v1.5.1PL0 Copyright (c) Steve Scherf et al.
# Submitted via: Advanced CD Ripper Pro 2.0
#
DISCID=4810e517
DTITLE=Los Felinos - Exitos
DYEAR=2003
DGENRE=other
TTITLE0=Lapiz Labial
TTITLE1=De Puntitas
TTITLE2=Morena
TTITLE3=Jacinto Perez De La O
TTITLE4=Virgencita De Guadalupe
TTITLE5=La Mula Morena
TTITLE6=Las Hijas de Don Simon
TTITLE7=Rompe Corazones
TTITLE8=Jambalaya
TTITLE9=Flor Morena
TTITLE10=La Mula Bronca
TTITLE11=El Buey De La Barranca
TTITLE12=El Ilegal
TTITLE13=Morena de 15 Años
TTITLE14=Besame Y Llora
TTITLE15=Levantado En Armas
TTITLE16=Amor A Primera Vista
TTITLE17=El Planton
TTITLE18=El Hijo de Susana
TTITLE19=No Le Voy A Rogar
TTITLE20=El Pescador Nadador
TTITLE21=El Tecolote
TTITLE22=El Venadito
EXTD=
EXTT0=
EXTT1=
EXTT2=
EXTT3=
EXTT4=
EXTT5=
EXTT6=
EXTT7=
EXTT8=
EXTT9=
EXTT10=
EXTT11=
EXTT12=
EXTT13=
EXTT14=
EXTT15=
EXTT16=
EXTT17=
EXTT18=
EXTT19=
EXTT20=
EXTT21=
EXTT22=
PLAYORDER=
